<svg width="198" height="198" viewBox="0 0 198 198" fill="none" xmlns="http://www.w3.org/2000/svg">
<rect width="198" height="198" rx="99" fill="#0D0D0D" fill-opacity="0.32"/>
<rect x="19" y="19.5" width="159" height="159" rx="79.5" fill="url(#paint0_linear_6747_225)"/>
<path d="M79.696 122.768C75.984 122.768 72.6773 121.851 69.776 120.016C66.8747 118.181 64.592 115.536 62.928 112.08C61.3067 108.581 60.496 104.421 60.496 99.6C60.496 94.7787 61.3067 90.64 62.928 87.184C64.592 83.6853 66.8747 81.0187 69.776 79.184C72.6773 77.3493 75.984 76.432 79.696 76.432C83.408 76.432 86.7147 77.3493 89.616 79.184C92.5173 81.0187 94.7787 83.6853 96.4 87.184C98.064 90.64 98.896 94.7787 98.896 99.6C98.896 104.421 98.064 108.581 96.4 112.08C94.7787 115.536 92.5173 118.181 89.616 120.016C86.7147 121.851 83.408 122.768 79.696 122.768ZM79.696 114C82.4267 114 84.56 112.827 86.096 110.48C87.6747 108.133 88.464 104.507 88.464 99.6C88.464 94.6933 87.6747 91.0667 86.096 88.72C84.56 86.3733 82.4267 85.2 79.696 85.2C77.008 85.2 74.8747 86.3733 73.296 88.72C71.76 91.0667 70.992 94.6933 70.992 99.6C70.992 104.507 71.76 108.133 73.296 110.48C74.8747 112.827 77.008 114 79.696 114ZM137.031 113.552V122H103.174V115.28L120.455 98.96C122.289 97.2107 123.527 95.7173 124.167 94.48C124.807 93.2 125.127 91.9413 125.127 90.704C125.127 88.912 124.508 87.5467 123.271 86.608C122.076 85.6267 120.305 85.136 117.958 85.136C115.996 85.136 114.225 85.52 112.647 86.288C111.068 87.0133 109.745 88.1227 108.679 89.616L101.127 84.752C102.876 82.1493 105.287 80.1227 108.359 78.672C111.431 77.1787 114.951 76.432 118.919 76.432C122.247 76.432 125.148 76.9867 127.623 78.096C130.14 79.1627 132.081 80.6987 133.447 82.704C134.855 84.6667 135.559 86.992 135.559 89.68C135.559 92.112 135.047 94.3947 134.023 96.528C132.999 98.6613 131.015 101.093 128.071 103.824L117.767 113.552H137.031Z" fill="#343045"/>
<defs>
<linearGradient id="paint0_linear_6747_225" x1="165" y1="62" x2="19" y2="111.5" gradientUnits="userSpaceOnUse">
<stop stop-color="#C0B7E8"/>
<stop offset="1" stop-color="#8176AF"/>
</linearGradient>
</defs>
</svg>
