<svg width="198" height="198" viewBox="0 0 198 198" fill="none" xmlns="http://www.w3.org/2000/svg">
<rect width="198" height="198" rx="99" fill="#0D0D0D" fill-opacity="0.32"/>
<rect x="19" y="19.5" width="159" height="159" rx="79.5" fill="url(#paint0_linear_6747_227)"/>
<path d="M79.696 122.768C75.984 122.768 72.6773 121.851 69.776 120.016C66.8747 118.181 64.592 115.536 62.928 112.08C61.3067 108.581 60.496 104.421 60.496 99.6C60.496 94.7787 61.3067 90.64 62.928 87.184C64.592 83.6853 66.8747 81.0187 69.776 79.184C72.6773 77.3493 75.984 76.432 79.696 76.432C83.408 76.432 86.7147 77.3493 89.616 79.184C92.5173 81.0187 94.7787 83.6853 96.4 87.184C98.064 90.64 98.896 94.7787 98.896 99.6C98.896 104.421 98.064 108.581 96.4 112.08C94.7787 115.536 92.5173 118.181 89.616 120.016C86.7147 121.851 83.408 122.768 79.696 122.768ZM79.696 114C82.4267 114 84.56 112.827 86.096 110.48C87.6747 108.133 88.464 104.507 88.464 99.6C88.464 94.6933 87.6747 91.0667 86.096 88.72C84.56 86.3733 82.4267 85.2 79.696 85.2C77.008 85.2 74.8747 86.3733 73.296 88.72C71.76 91.0667 70.992 94.6933 70.992 99.6C70.992 104.507 71.76 108.133 73.296 110.48C74.8747 112.827 77.008 114 79.696 114ZM124.237 95.44C128.162 96.08 131.17 97.552 133.261 99.856C135.351 102.117 136.397 104.933 136.397 108.304C136.397 110.907 135.714 113.317 134.349 115.536C132.983 117.712 130.893 119.461 128.077 120.784C125.303 122.107 121.89 122.768 117.837 122.768C114.679 122.768 111.565 122.363 108.493 121.552C105.463 120.699 102.882 119.504 100.748 117.968L104.781 110.032C106.487 111.312 108.45 112.315 110.669 113.04C112.93 113.723 115.234 114.064 117.581 114.064C120.183 114.064 122.231 113.573 123.725 112.592C125.218 111.568 125.965 110.139 125.965 108.304C125.965 104.635 123.17 102.8 117.581 102.8H112.845V95.952L122.061 85.52H102.989V77.2H134.349V83.92L124.237 95.44Z" fill="#343045"/>
<defs>
<linearGradient id="paint0_linear_6747_227" x1="165" y1="62" x2="19" y2="111.5" gradientUnits="userSpaceOnUse">
<stop stop-color="#C0B7E8"/>
<stop offset="1" stop-color="#8176AF"/>
</linearGradient>
</defs>
</svg>
