<svg width="198" height="198" viewBox="0 0 198 198" fill="none" xmlns="http://www.w3.org/2000/svg">
<rect width="198" height="198" rx="99" fill="#0D0D0D" fill-opacity="0.32"/>
<rect x="19" y="19.5" width="159" height="159" rx="79.5" fill="url(#paint0_linear_6747_229)"/>
<path d="M76.196 122.768C72.484 122.768 69.1773 121.851 66.276 120.016C63.3747 118.181 61.092 115.536 59.428 112.08C57.8067 108.581 56.996 104.421 56.996 99.6C56.996 94.7787 57.8067 90.64 59.428 87.184C61.092 83.6853 63.3747 81.0187 66.276 79.184C69.1773 77.3493 72.484 76.432 76.196 76.432C79.908 76.432 83.2147 77.3493 86.116 79.184C89.0173 81.0187 91.2787 83.6853 92.9 87.184C94.564 90.64 95.396 94.7787 95.396 99.6C95.396 104.421 94.564 108.581 92.9 112.08C91.2787 115.536 89.0173 118.181 86.116 120.016C83.2147 121.851 79.908 122.768 76.196 122.768ZM76.196 114C78.9267 114 81.06 112.827 82.596 110.48C84.1747 108.133 84.964 104.507 84.964 99.6C84.964 94.6933 84.1747 91.0667 82.596 88.72C81.06 86.3733 78.9267 85.2 76.196 85.2C73.508 85.2 71.3747 86.3733 69.796 88.72C68.26 91.0667 67.492 94.6933 67.492 99.6C67.492 104.507 68.26 108.133 69.796 110.48C71.3747 112.827 73.508 114 76.196 114ZM141.458 112.592H134.162V122H124.05V112.592H99.9215V105.616L121.042 77.2H131.922L112.338 104.144H124.37V95.76H134.162V104.144H141.458V112.592Z" fill="#343045"/>
<defs>
<linearGradient id="paint0_linear_6747_229" x1="165" y1="62" x2="19" y2="111.5" gradientUnits="userSpaceOnUse">
<stop stop-color="#C0B7E8"/>
<stop offset="1" stop-color="#8176AF"/>
</linearGradient>
</defs>
</svg>
