<svg width="126" height="60" viewBox="0 0 126 60" fill="none" xmlns="http://www.w3.org/2000/svg">
<path d="M68.1749 24.004C69.0787 28.4944 63.5338 27.2984 63.5338 27.2984C61.2132 21.6749 57.5003 22.1995 57.5003 22.1995C60.4071 24.025 60.627 25.5778 60.627 25.5778C52.8836 20.8566 42.3556 24.6545 38.3496 26.4381C36.1023 23.7103 31.5589 17.6042 33.1711 14.8344C35.2962 11.2043 39.6198 13.2817 39.6198 13.2817C48.3647 13.1558 47.8761 10.4699 47.8761 10.4699C45.5556 12.0227 38.716 10.4699 38.716 10.4699C44.6518 10.4699 47.1677 8.39261 47.1677 8.39261C42.7465 9.33685 37.8122 5.28712 37.8122 5.28712C36.0046 -2.66547 27.6506 0.712805 27.6506 0.712805C32.878 -0.0635688 31.4856 4.69959 31.4856 4.69959C24.9392 6.69298 25.5499 9.88241 25.5499 9.88241C27.675 7.38542 29.4826 7.19658 29.4826 7.19658C23.498 14.4357 29.2628 24.5076 30.9727 27.1305C27.846 28.998 20.5179 33.1107 17.2203 31.6838C12.9944 29.8583 15.4127 26.1443 15.4127 26.1443C15.315 18.6324 12.1883 19.052 12.1883 19.052C13.9959 21.0454 12.1883 26.9207 12.1883 26.9207C12.1883 21.8218 9.77006 19.6605 9.77006 19.6605C10.8693 23.4585 6.15487 27.697 6.15487 27.697C-3.10295 29.2498 0.829795 36.426 0.829795 36.426C-0.0740021 31.9356 5.47092 33.1317 5.47092 33.1317C7.79148 38.7551 11.5044 38.2305 11.5044 38.2305C8.59757 36.405 8.37773 34.8523 8.37773 34.8523C16.5608 39.8462 27.8704 35.3139 31.2902 33.7192C33.5863 36.5519 37.8611 42.3852 36.2733 45.092C34.1482 48.7221 29.8246 46.6448 29.8246 46.6448C21.0797 46.7287 21.5683 49.4145 21.5683 49.4145C23.8888 47.8618 30.7284 49.4145 30.7284 49.4145C24.7926 49.4145 22.2767 51.4918 22.2767 51.4918C26.6979 50.5476 31.6322 54.5973 31.6322 54.5973C33.4398 62.5499 41.7938 59.1717 41.7938 59.1717C36.5664 59.948 37.9588 55.1849 37.9588 55.1849C44.5052 53.1915 43.8945 50.002 43.8945 50.002C41.7694 52.499 39.9618 52.6879 39.9618 52.6879C45.8243 45.6166 40.4259 35.8175 38.5939 32.9428C41.9159 30.9494 48.6334 27.3823 51.7356 28.7252C55.9614 30.5507 53.5432 34.2647 53.5432 34.2647C53.6409 41.7767 56.7675 41.357 56.7675 41.357C54.9599 39.3636 56.7675 33.4884 56.7675 33.4884C56.7675 38.5873 59.1858 40.7485 59.1858 40.7485C58.0866 36.9506 62.801 32.712 62.801 32.712C72.1077 31.1802 68.1749 24.004 68.1749 24.004Z" fill="url(#paint0_linear_6780_60)"/>
<g clip-path="url(#clip0_6780_60)">
<path d="M80 15.9422H81.4047V32.6235H85.5991V15.9422H87.0039V43.9422H85.5991V34.0285H81.4047V43.9422H80V15.9422Z" fill="url(#paint1_linear_6780_60)"/>
<path d="M97.391 15.9422L93.9088 34.0285V43.9422H92.5041V34.0285L89.0021 15.9422H90.2882L93.2163 31.0207L96.1247 15.9422H97.391Z" fill="url(#paint2_linear_6780_60)"/>
<path d="M103.603 43.9422H99.3892V15.9422H103.584C105.147 15.9422 106.373 17.1889 106.373 18.7323V41.1323C106.393 42.656 105.147 43.9422 103.603 43.9422ZM100.794 17.3472V42.5373H103.584C104.335 42.5373 104.988 41.9041 104.988 41.1323V18.7323C104.988 17.9804 104.355 17.3274 103.584 17.3274H100.794V17.3472Z" fill="url(#paint3_linear_6780_60)"/>
<path d="M115.593 43.9422H114.149L111.676 34.0285H109.994V43.9422H108.589V15.9422H112.784C114.347 15.9422 115.573 17.1889 115.573 18.7323V31.2186C115.573 32.6235 114.485 33.8108 113.1 33.9691L115.593 43.9422ZM109.994 32.6235H112.784C113.535 32.6235 114.188 31.9903 114.188 31.2186V18.7323C114.188 17.9804 113.555 17.3274 112.784 17.3274H109.994V32.6235Z" fill="url(#paint4_linear_6780_60)"/>
<path d="M119.827 34.0285L118.858 43.9422H117.591L120.401 15.9422H123.191L125.98 43.9422H124.714L123.744 34.0285H119.827ZM122.063 17.3472H121.509L119.985 32.6235H123.586L122.063 17.3472Z" fill="url(#paint5_linear_6780_60)"/>
</g>
<defs>
<linearGradient id="paint0_linear_6780_60" x1="34.5" y1="0" x2="34.5" y2="59.8845" gradientUnits="userSpaceOnUse">
<stop stop-color="#C0B7E8"/>
<stop offset="1" stop-color="#8176AF"/>
</linearGradient>
<linearGradient id="paint1_linear_6780_60" x1="83.5019" y1="15.9422" x2="83.5019" y2="43.9422" gradientUnits="userSpaceOnUse">
<stop stop-color="#C0B7E8"/>
<stop offset="1" stop-color="#8176AF"/>
</linearGradient>
<linearGradient id="paint2_linear_6780_60" x1="93.1965" y1="15.9422" x2="93.1965" y2="43.9422" gradientUnits="userSpaceOnUse">
<stop stop-color="#C0B7E8"/>
<stop offset="1" stop-color="#8176AF"/>
</linearGradient>
<linearGradient id="paint3_linear_6780_60" x1="102.881" y1="15.9422" x2="102.881" y2="43.9422" gradientUnits="userSpaceOnUse">
<stop stop-color="#C0B7E8"/>
<stop offset="1" stop-color="#8176AF"/>
</linearGradient>
<linearGradient id="paint4_linear_6780_60" x1="112.091" y1="15.9422" x2="112.091" y2="43.9422" gradientUnits="userSpaceOnUse">
<stop stop-color="#C0B7E8"/>
<stop offset="1" stop-color="#8176AF"/>
</linearGradient>
<linearGradient id="paint5_linear_6780_60" x1="121.786" y1="15.9422" x2="121.786" y2="43.9422" gradientUnits="userSpaceOnUse">
<stop stop-color="#C0B7E8"/>
<stop offset="1" stop-color="#8176AF"/>
</linearGradient>
<clipPath id="clip0_6780_60">
<rect width="46" height="28" fill="white" transform="translate(80 15.9422)"/>
</clipPath>
</defs>
</svg>
