<svg width="197" height="203" viewBox="0 0 197 203" fill="none" xmlns="http://www.w3.org/2000/svg">
<g clip-path="url(#clip0_13_47)" filter="url(#filter0_d_13_47)">
<path d="M188.772 74.9048C191.195 88.9167 176.329 85.1845 176.329 85.1845C170.108 67.6369 160.154 69.2738 160.154 69.2738C167.947 74.9703 168.536 79.8155 168.536 79.8155C147.777 65.0834 119.552 76.9345 108.812 82.5C102.787 73.9881 90.6069 54.9345 94.929 46.2917C100.626 34.9643 112.218 41.4464 112.218 41.4464C135.662 41.0536 134.352 32.6726 134.352 32.6726C128.131 37.5179 109.795 32.6726 109.795 32.6726C125.708 32.6726 132.453 26.1905 132.453 26.1905C120.6 29.1369 107.372 16.5 107.372 16.5C102.526 -8.31546 80.1291 2.22621 80.1291 2.22621C94.1432 -0.196409 90.4105 14.6667 90.4105 14.6667C72.86 20.8869 74.4972 30.8393 74.4972 30.8393C80.1945 23.0476 85.0406 22.4584 85.0406 22.4584C68.9963 45.0476 84.4512 76.4762 89.0352 84.6607C80.6529 90.4881 61.0069 103.321 52.1662 98.8691C40.837 93.1726 47.3202 81.5834 47.3202 81.5834C47.0582 58.1429 38.6759 59.4524 38.6759 59.4524C43.522 65.6726 38.6759 84.006 38.6759 84.006C38.6759 68.0953 32.1928 61.3512 32.1928 61.3512C35.1397 73.2024 22.5007 86.4286 22.5007 86.4286C-2.31875 91.2738 8.22462 113.667 8.22462 113.667C5.80161 99.6548 20.6671 103.387 20.6671 103.387C26.8883 120.935 36.8423 119.298 36.8423 119.298C29.0494 113.601 28.46 108.756 28.46 108.756C50.3981 124.339 80.7184 110.196 89.8866 105.22C96.0423 114.06 107.503 132.262 103.246 140.708C97.5485 152.036 85.9574 145.554 85.9574 145.554C62.5131 145.815 63.8229 154.196 63.8229 154.196C70.0441 149.351 88.3804 154.196 88.3804 154.196C72.4671 154.196 65.722 160.679 65.722 160.679C77.5751 157.732 90.8034 170.369 90.8034 170.369C95.6494 195.185 118.046 184.643 118.046 184.643C104.032 187.065 107.764 172.202 107.764 172.202C125.315 165.982 123.678 156.03 123.678 156.03C117.98 163.821 113.134 164.411 113.134 164.411C128.851 142.345 114.379 111.768 109.467 102.798C118.373 96.5774 136.382 85.4464 144.699 89.6369C156.028 95.3333 149.545 106.923 149.545 106.923C149.807 130.363 158.189 129.054 158.189 129.054C153.343 122.833 158.189 104.5 158.189 104.5C158.189 120.411 164.672 127.155 164.672 127.155C161.726 115.304 174.364 102.077 174.364 102.077C199.315 97.2976 188.772 74.9048 188.772 74.9048Z" fill="url(#paint0_linear_13_47)"/>
</g>
<defs>
<filter id="filter0_d_13_47" x="-0.00201416" y="0" width="197" height="203" filterUnits="userSpaceOnUse" color-interpolation-filters="sRGB">
<feFlood flood-opacity="0" result="BackgroundImageFix"/>
<feColorMatrix in="SourceAlpha" type="matrix" values="0 0 0 0 0 0 0 0 0 0 0 0 0 0 0 0 0 0 127 0" result="hardAlpha"/>
<feOffset dy="10"/>
<feGaussianBlur stdDeviation="3"/>
<feComposite in2="hardAlpha" operator="out"/>
<feColorMatrix type="matrix" values="0 0 0 0 0 0 0 0 0 0 0 0 0 0 0 0 0 0 0.25 0"/>
<feBlend mode="normal" in2="BackgroundImageFix" result="effect1_dropShadow_13_47"/>
<feBlend mode="normal" in="SourceGraphic" in2="effect1_dropShadow_13_47" result="shape"/>
</filter>
<linearGradient id="paint0_linear_13_47" x1="98.4918" y1="0.00195312" x2="98.4918" y2="186.867" gradientUnits="userSpaceOnUse">
<stop stop-color="#C0B7E8"/>
<stop offset="1" stop-color="#8176AF"/>
</linearGradient>
<clipPath id="clip0_13_47">
<rect width="185" height="187" fill="white" transform="translate(5.99799)"/>
</clipPath>
</defs>
</svg>
